#!OML:ASF E:\id_vita\Project 1\Capture day 1\Session 1\Female.ASF
:FULLY-SPECIFIED
:DEGREES
740
root -23.5926 16.389 0.720119 370.511 -174.262 -358.093
lowerback -13.0414 1.8521 -1.33961
upperback -4.18349 2.13211 1.00867
thorax 2.81937 0.87056 2.11941
lowerneck 16.4593 0.286653 -1.98487
upperneck -31.3165 -2.27361 -0.359832
head -13.26 -1.39479 0.729541
rclavicle 6.50709e-016 4.31114e-015
rhumerus -36.7422 -32.4235 -72.9336
rradius 16.7436
rwrist 30.0715
rhand -17.0897 8.98964
rfingers 7.12502
rthumb 9.14875 -20.7919
lclavicle 6.50709e-016 4.31114e-015
lhumerus -116.647 46.973 -29.2111
lradius 11.7416
lwrist -111.797
lhand -3.37706 21.7448
lfingers 7.12502
lthumb 22.3521 50.4718
rfemur -26.1097 -5.88697 15.6993
rtibia 35.5382
rfoot -5.51461 -7.87445
rtoes -22.7652
lfemur -16.7437 -5.98824 -21.4946
ltibia 26.6973
lfoot -24.6739 2.93456
ltoes 8.07007
741
root -23.5905 16.3923 0.720472 370.528 -174.01 -357.988
lowerback -13.0409 1.89256 -1.31653
upperback -4.23678 2.17771 1.00347
thorax 2.76246 0.891971 2.10662
lowerneck 17.0198 0.152562 -2.26728
upperneck -31.7965 -2.51043 -0.02191
head -13.5756 -1.50855 0.965689
rclavicle 1.96397e-014 -1.65675e-014
rhumerus -36.7268 -32.356 -72.8791
rradius 16.614
rwrist 30.4452
rhand -16.8397 8.68323
rfingers 7.12502
rthumb 9.39 -21.0876
lclavicle 1.96397e-014 -1.65675e-014
lhumerus -113.552 48.0283 -25.1492
lradius 11.6285
lwrist -109.078
lhand -3.76872 21.7917
lfingers 7.12502
lthumb 21.976 50.5634
rfemur -26.1545 -6.12155 15.8752
rtibia 35.5539
rfoot -5.17825 -7.83274
rtoes -23.4134
lfemur -16.7999 -6.07087 -21.3502
ltibia 26.6753
lfoot -24.6065 2.85638
ltoes 7.9796
742
root -23.5877 16.3935 0.721099 370.451 -173.71 -357.948
lowerback -13.0889 1.83865 -1.34751
upperback -4.14165 2.12176 1.02108
thorax 2.88861 0.867155 2.13779
lowerneck 17.1467 0.106008 -2.54165
upperneck -31.981 -2.617 0.219244
head -13.6742 -1.55773 1.13271
rclavicle -2.75158e-014 -9.11303e-015
rhumerus -36.6133 -32.4518 -72.8097
rradius 16.5033
rwrist 30.7698
rhand -16.8446 9.2379
rfingers 7.12502
rthumb 9.38525 -20.5332
lclavicle -2.75158e-014 -9.11303e-015
lhumerus -105.831 50.2103 -14.4764
lradius 12.4365
lwrist -100.786
lhand -2.53893 21.7213
lfingers 7.12502
lthumb 23.1564 50.3495
rfemur -26.0532 -6.3161 15.9627
rtibia 35.5513
rfoot -4.89855 -7.93819
rtoes -24.1709
lfemur -16.7543 -6.32643 -21.2593
ltibia 26.6779
lfoot -24.5541 2.786
ltoes 7.78404
743
root -23.5846 16.3959 0.724056 370.392 -173.366 -357.795
lowerback -13.0884 1.76368 -1.28515
upperback -4.09394 2.01721 1.09963
thorax 2.94257 0.817001 2.16995
lowerneck 17.1012 0.100083 -2.75308
upperneck -31.9715 -2.64773 0.355593
head -13.6547 -1.56515 1.22762
rclavicle 3.36851e-014 6.96368e-015
rhumerus -36.7146 -32.661 -72.6356
rradius 16.5511
rwrist 31.0015
rhand -17.1518 10.1425
rfingers 7.12502
rthumb 9.08884 -19.6417
lclavicle 3.36851e-014 6.96368e-015
lhumerus -101.691 50.9422 -8.83908
lradius 12.5929
lwrist -97.2668
lhand -2.75963 22.0445
lfingers 7.12502
lthumb 22.9446 50.6992
rfemur -25.9442 -6.28637 16.1398
rtibia 35.5351
rfoot -4.71135 -8.23652
rtoes -23.9844
lfemur -16.7637 -6.71724 -21.0111
ltibia 26.7152
lfoot -24.5708 2.70853
ltoes 7.85351
744
root -23.584 16.3991 0.725922 370.346 -173.13 -357.636
lowerback -13.0478 1.80478 -1.09004
upperback -4.11007 2.04829 1.06141
thorax 2.9115 0.832684 2.02316
lowerneck 17.227 0.0260358 -2.64001
upperneck -32.0303 -2.75308 0.267419
head -13.7088 -1.60874 1.19304
rclavicle 1.70101e-014 1.71452e-015
rhumerus -36.9966 -32.9512 -72.5082
rradius 16.6956
rwrist 31.3945
rhand -17.1829 10.5498
rfingers 7.12502
rthumb 9.05883 -19.2357
lclavicle 1.70101e-014 1.71452e-015
lhumerus -98.2346 51.3323 -4.53401
lradius 12.5377
lwrist -94.4132
lhand -3.0007 22.1717
lfingers 7.12502
lthumb 22.7133 50.8548
rfemur -25.8343 -6.09748 16.2633
rtibia 35.5152
rfoot -4.64804 -8.46214
rtoes -23.5261
lfemur -16.7756 -6.81256 -20.8092
ltibia 26.7312
lfoot -24.6359 2.64896
ltoes 7.75333
